<svg width="15" height="14" viewBox="0 0 15 14" fill="none" xmlns="http://www.w3.org/2000/svg">
<path d="M13.8497 9.59461C12.9159 9.59461 12.0124 9.44278 11.1697 9.16947C11.0377 9.12499 10.8958 9.11848 10.7602 9.1507C10.6247 9.18291 10.5009 9.25255 10.4029 9.35167L9.211 10.8473C7.06248 9.82237 5.05062 7.88643 3.98016 5.66199L5.46058 4.40173C5.66557 4.18916 5.7263 3.89307 5.64279 3.62735C5.36189 2.78465 5.21764 1.88121 5.21764 0.947402C5.21764 0.537438 4.876 0.195801 4.46604 0.195801H1.83923C1.42927 0.195801 0.935791 0.378007 0.935791 0.947402C0.935791 8.00031 6.80436 13.8613 13.8497 13.8613C14.3887 13.8613 14.6013 13.383 14.6013 12.9654V10.3462C14.6013 9.93625 14.2596 9.59461 13.8497 9.59461Z" fill="#D14A51"/>
</svg>
